<svg width="37" height="37" viewBox="0 0 37 37" fill="none" xmlns="http://www.w3.org/2000/svg">
<path d="M31.5878 5.41235C24.3716 -1.80376 12.6294 -1.80447 5.41243 5.41235C-1.8045 12.6292 -1.80379 24.3706 5.41243 31.5874C12.6286 38.8042 24.3709 38.8042 31.5878 31.5874C38.8041 24.3706 38.8041 12.6285 31.5878 5.41235ZM25.7989 25.7986C25.243 26.3545 24.3417 26.3545 23.7858 25.7986L18.5001 20.513L12.9632 26.0498C12.4072 26.6058 11.506 26.6058 10.9501 26.0498C10.3941 25.4939 10.3941 24.5927 10.9501 24.0367L16.487 18.4999L11.2013 13.2143C10.6454 12.6584 10.6454 11.7564 11.2013 11.2012C11.7573 10.6452 12.6585 10.6452 13.2145 11.2012L18.5001 16.4867L23.5338 11.4532C24.0897 10.8972 24.991 10.8972 25.5469 11.4532C26.1029 12.0091 26.1029 12.9104 25.5469 13.4663L20.5133 18.4999L25.7989 23.7854C26.3549 24.3414 26.3549 25.2426 25.7989 25.7986Z" fill="white"/>
</svg>
